<svg id="svg" version="1.1" xmlns="http://www.w3.org/2000/svg" xmlns:xlink="http://www.w3.org/1999/xlink" width="400" height="124.44444444444444" viewBox="0, 0, 400,124.44444444444444"><g id="svgg"><path id="path0" d="M162.583 8.103 C 158.816 8.354,157.174 8.530,155.250 8.889 C 154.517 9.026,153.242 9.263,152.417 9.415 C 148.679 10.106,147.500 10.441,147.500 10.815 C 147.500 11.083,149.125 11.246,150.500 11.115 C 152.395 10.935,165.482 11.073,168.417 11.304 C 170.735 11.486,172.591 11.703,174.667 12.032 C 175.262 12.127,176.200 12.262,176.750 12.334 C 178.097 12.509,180.491 12.936,181.917 13.254 C 182.558 13.398,183.383 13.582,183.750 13.664 C 184.611 13.856,186.357 14.257,187.417 14.506 C 187.875 14.614,188.321 14.769,188.408 14.851 C 188.495 14.933,188.736 15.000,188.942 15.000 C 189.149 15.000,189.490 15.070,189.700 15.156 C 189.911 15.242,190.646 15.471,191.333 15.665 C 192.021 15.859,192.714 16.089,192.873 16.175 C 193.032 16.262,193.255 16.333,193.369 16.333 C 193.750 16.333,198.829 18.265,200.630 19.095 C 201.113 19.318,201.570 19.500,201.644 19.500 C 201.879 19.500,208.211 22.704,209.117 23.281 C 209.594 23.585,210.032 23.833,210.092 23.833 C 210.279 23.833,215.642 27.203,216.250 27.703 C 216.342 27.778,217.017 28.270,217.751 28.795 C 219.704 30.192,222.377 32.320,224.081 33.833 C 226.775 36.226,230.420 39.871,232.756 42.511 C 233.393 43.230,236.011 46.497,236.296 46.928 C 237.567 48.849,238.333 50.041,238.333 50.095 C 238.333 50.131,238.633 50.651,239.000 51.250 C 239.367 51.849,239.667 52.374,239.667 52.417 C 239.667 52.459,239.967 52.984,240.333 53.583 C 240.700 54.182,241.000 54.711,241.000 54.758 C 241.000 55.187,245.076 61.247,246.095 62.333 C 247.585 63.921,248.272 73.376,247.282 78.667 C 246.760 81.460,245.924 84.515,245.253 86.083 C 245.135 86.358,244.943 86.846,244.826 87.167 C 243.867 89.798,241.031 94.762,239.112 97.167 C 239.002 97.304,238.546 97.895,238.097 98.479 C 237.323 99.488,232.947 103.988,231.636 105.123 C 228.566 107.781,224.127 110.655,219.659 112.877 C 217.409 113.996,216.125 114.561,214.083 115.333 C 213.900 115.402,213.525 115.550,213.250 115.662 C 212.628 115.914,211.713 116.212,210.417 116.583 C 209.867 116.741,209.079 116.968,208.667 117.089 C 207.343 117.476,205.816 117.792,202.333 118.401 C 199.431 118.908,196.367 119.230,192.138 119.472 C 188.038 119.707,190.263 119.833,198.431 119.830 C 208.655 119.825,211.739 119.584,216.583 118.410 C 217.225 118.255,218.012 118.090,218.333 118.044 C 218.654 117.998,218.992 117.903,219.083 117.833 C 219.175 117.763,219.512 117.650,219.833 117.583 C 220.154 117.516,220.492 117.411,220.583 117.349 C 220.675 117.287,221.200 117.100,221.750 116.932 C 222.300 116.765,222.900 116.566,223.083 116.491 C 228.930 114.095,231.900 112.552,236.500 109.522 C 238.576 108.154,241.696 105.869,242.564 105.081 C 242.666 104.988,243.088 104.653,243.500 104.336 C 244.272 103.743,247.608 100.851,249.083 99.495 C 251.280 97.475,252.386 96.406,254.481 94.276 C 258.095 90.600,258.472 90.210,260.753 87.773 C 264.366 83.914,267.456 80.897,269.083 79.641 C 269.358 79.429,269.733 79.115,269.917 78.945 C 270.100 78.774,270.700 78.287,271.250 77.863 C 271.800 77.439,272.437 76.921,272.665 76.713 C 272.893 76.504,273.132 76.333,273.195 76.333 C 273.258 76.333,273.409 76.239,273.530 76.123 C 274.367 75.322,280.487 71.191,282.487 70.077 C 282.658 69.982,282.900 69.821,283.024 69.719 C 283.148 69.618,283.625 69.327,284.083 69.073 C 284.542 68.819,285.142 68.474,285.417 68.307 C 285.692 68.140,286.029 67.951,286.167 67.889 C 286.304 67.826,286.679 67.611,287.000 67.412 C 288.517 66.470,299.050 61.167,299.404 61.167 C 299.443 61.167,300.051 60.901,300.754 60.576 C 301.457 60.251,303.131 59.534,304.474 58.981 C 305.818 58.428,307.142 57.877,307.417 57.755 C 307.692 57.633,308.254 57.417,308.667 57.275 C 309.079 57.133,309.942 56.816,310.583 56.571 C 313.296 55.534,319.324 53.474,321.250 52.926 C 321.800 52.769,322.400 52.582,322.583 52.511 C 323.063 52.323,325.816 51.514,327.250 51.139 C 327.617 51.044,328.100 50.893,328.324 50.805 C 328.548 50.717,329.035 50.583,329.407 50.508 C 329.779 50.432,330.983 50.133,332.083 49.842 C 333.183 49.551,334.383 49.245,334.750 49.162 C 336.669 48.728,337.809 48.486,338.333 48.400 C 338.654 48.348,339.105 48.235,339.335 48.149 C 339.566 48.063,340.128 47.925,340.585 47.842 C 341.043 47.759,342.054 47.569,342.833 47.420 C 343.613 47.270,344.722 47.080,345.298 46.996 C 345.875 46.913,346.422 46.798,346.513 46.742 C 346.604 46.686,347.145 46.566,347.714 46.477 C 349.612 46.179,352.070 45.816,353.250 45.660 C 353.892 45.576,355.242 45.395,356.250 45.259 C 357.258 45.123,358.983 44.934,360.083 44.839 C 361.183 44.743,362.796 44.592,363.667 44.502 C 370.774 43.771,385.323 44.039,391.000 45.007 C 391.596 45.108,392.758 45.304,393.583 45.443 C 394.408 45.581,395.355 45.763,395.686 45.847 C 397.481 46.302,397.022 45.768,395.000 45.048 C 394.221 44.771,393.283 44.463,392.917 44.363 C 392.550 44.264,391.819 44.065,391.293 43.921 C 388.556 43.174,388.306 43.118,385.333 42.584 C 381.575 41.908,380.830 41.826,374.000 41.337 C 368.246 40.925,363.445 40.947,355.417 41.422 C 348.592 41.826,348.084 41.872,340.667 42.748 C 339.429 42.894,337.817 43.080,337.083 43.161 C 336.350 43.243,335.000 43.430,334.083 43.577 C 332.589 43.816,331.418 43.988,327.833 44.496 C 327.237 44.580,326.112 44.766,325.333 44.909 C 324.014 45.151,321.810 45.514,320.250 45.748 C 319.883 45.803,319.021 45.960,318.333 46.097 C 317.646 46.234,316.708 46.417,316.250 46.503 C 313.248 47.069,312.449 47.232,311.333 47.506 C 308.301 48.252,306.458 48.822,297.333 51.833 C 294.079 52.907,290.967 53.917,290.417 54.076 C 288.509 54.630,288.248 54.710,287.843 54.866 C 287.619 54.952,287.132 55.085,286.760 55.163 C 286.388 55.240,285.577 55.423,284.958 55.569 C 279.943 56.749,277.751 57.039,273.833 57.042 C 271.463 57.044,270.155 56.967,269.000 56.757 C 265.372 56.096,261.328 54.483,257.942 52.347 C 257.131 51.835,256.340 51.342,256.184 51.250 C 254.741 50.399,249.434 46.190,247.239 44.154 C 246.787 43.734,245.854 42.876,245.167 42.246 C 243.944 41.126,238.528 36.086,236.487 34.167 C 236.243 33.938,235.864 33.600,235.644 33.417 C 235.425 33.233,234.534 32.480,233.664 31.743 C 232.795 31.006,231.746 30.145,231.333 29.831 C 230.921 29.516,230.546 29.217,230.500 29.165 C 230.070 28.684,222.393 23.667,222.088 23.667 C 222.043 23.667,221.516 23.367,220.917 23.000 C 220.318 22.633,219.790 22.333,219.744 22.333 C 219.698 22.333,219.360 22.144,218.994 21.913 C 218.322 21.489,211.702 18.152,210.000 17.379 C 209.496 17.150,208.971 16.907,208.833 16.840 C 208.696 16.772,207.721 16.361,206.667 15.925 C 205.612 15.489,204.525 15.037,204.250 14.921 C 203.780 14.723,202.896 14.396,200.208 13.428 C 198.097 12.668,192.786 11.071,191.000 10.658 C 190.588 10.563,189.762 10.368,189.167 10.226 C 187.408 9.806,184.790 9.298,182.917 9.015 C 182.458 8.946,181.521 8.803,180.833 8.698 C 175.346 7.862,169.207 7.662,162.583 8.103 M165.000 15.433 C 159.244 17.353,157.524 24.237,161.756 28.417 C 163.442 30.081,164.682 30.585,167.083 30.579 C 174.221 30.564,177.553 22.605,172.612 17.375 C 172.157 16.894,171.725 16.500,171.652 16.500 C 171.579 16.500,171.234 16.331,170.885 16.125 C 169.259 15.165,166.705 14.864,165.000 15.433 M271.583 23.578 C 269.993 23.801,269.446 23.958,268.037 24.600 C 267.553 24.820,267.117 25.000,267.067 25.000 C 266.384 25.000,263.392 27.884,262.260 29.634 C 261.421 30.930,261.602 30.831,259.000 31.420 C 251.115 33.205,249.651 36.885,255.895 39.227 C 257.550 39.847,258.906 40.252,259.858 40.409 C 260.485 40.512,261.333 41.060,261.333 41.362 C 261.333 42.061,262.911 44.424,264.275 45.768 C 270.468 51.871,281.283 50.038,284.997 42.256 C 285.679 40.826,286.343 40.520,290.127 39.887 C 290.425 39.837,290.711 39.730,290.761 39.648 C 290.812 39.567,290.980 39.497,291.135 39.494 C 291.290 39.491,291.717 39.344,292.083 39.167 C 292.450 38.990,292.805 38.842,292.872 38.839 C 293.083 38.829,294.738 37.720,295.035 37.389 C 296.785 35.440,294.873 33.107,290.500 31.855 C 289.507 31.571,287.962 31.199,286.917 30.993 C 285.225 30.659,285.106 30.597,284.534 29.740 C 283.786 28.619,283.106 27.798,282.251 26.983 C 281.004 25.795,280.097 25.215,278.083 24.322 C 277.299 23.974,276.177 23.694,275.167 23.594 C 274.571 23.535,273.858 23.460,273.583 23.428 C 273.308 23.395,272.408 23.463,271.583 23.578 M190.583 26.915 C 185.992 27.721,185.546 27.823,183.167 28.616 C 182.479 28.846,181.617 29.167,181.250 29.329 C 180.883 29.492,180.171 29.800,179.667 30.013 C 179.162 30.226,178.280 30.685,177.705 31.033 C 177.131 31.382,176.627 31.667,176.585 31.667 C 176.459 31.667,173.111 33.949,172.750 34.280 C 172.567 34.449,172.079 34.847,171.667 35.165 C 170.686 35.923,167.946 38.665,165.254 41.583 C 162.181 44.915,158.071 49.106,155.271 51.761 C 155.059 51.962,151.158 55.208,150.406 55.808 C 147.989 57.740,143.315 60.389,140.083 61.660 C 139.075 62.057,138.100 62.440,137.917 62.512 C 136.329 63.135,133.396 63.919,130.500 64.495 C 130.087 64.577,129.637 64.684,129.500 64.734 C 129.256 64.822,127.776 65.036,125.417 65.324 C 124.775 65.403,123.725 65.547,123.083 65.645 C 120.121 66.095,117.462 66.312,111.583 66.583 C 104.831 66.894,101.642 67.014,98.699 67.068 C 96.838 67.102,95.269 67.176,95.213 67.232 C 95.157 67.288,95.367 67.337,95.681 67.341 C 95.994 67.345,97.263 67.424,98.500 67.516 C 101.339 67.729,104.699 67.922,109.583 68.152 C 111.692 68.252,114.572 68.408,115.984 68.500 C 120.687 68.805,129.712 68.526,132.383 67.993 C 132.823 67.905,133.452 67.833,133.781 67.833 C 134.109 67.833,134.649 67.762,134.981 67.675 C 135.312 67.587,136.183 67.390,136.917 67.236 C 140.964 66.387,143.547 65.503,147.500 63.613 C 148.879 62.954,152.935 60.375,154.418 59.215 C 158.008 56.405,165.367 49.265,168.818 45.245 C 171.977 41.566,176.352 37.192,178.052 36.015 C 178.252 35.875,178.567 35.623,178.750 35.453 C 178.933 35.283,179.346 34.985,179.667 34.789 C 179.987 34.594,180.287 34.383,180.333 34.321 C 180.434 34.184,183.475 32.333,183.599 32.333 C 183.647 32.333,184.301 32.039,185.052 31.680 C 186.867 30.811,187.595 30.500,187.819 30.500 C 187.921 30.500,188.135 30.432,188.294 30.348 C 189.289 29.826,192.319 29.098,195.750 28.557 C 197.169 28.333,198.600 28.269,202.083 28.274 C 206.104 28.281,207.428 28.369,209.542 28.772 C 210.812 29.015,209.751 28.333,208.333 27.996 C 207.921 27.898,207.096 27.703,206.500 27.561 C 203.674 26.891,202.610 26.796,197.250 26.738 C 193.202 26.695,191.595 26.738,190.583 26.915 M287.945 32.182 C 294.838 33.817,296.593 36.009,292.534 37.914 C 291.166 38.557,291.019 38.613,289.958 38.904 C 289.431 39.048,288.592 39.285,288.094 39.429 C 287.596 39.573,286.977 39.667,286.719 39.637 L 286.250 39.583 286.237 36.667 C 286.227 34.360,286.166 33.597,285.945 33.018 C 285.464 31.762,285.720 31.655,287.945 32.182 M260.807 32.280 C 260.913 32.469,260.881 32.782,260.710 33.239 C 260.524 33.735,260.451 34.649,260.436 36.653 C 260.413 39.958,260.753 39.717,257.417 38.782 C 252.427 37.384,251.677 34.872,255.811 33.405 C 256.236 33.255,256.733 33.068,256.917 32.991 C 257.457 32.764,260.064 32.044,260.450 32.015 C 260.560 32.007,260.721 32.126,260.807 32.280 M199.167 37.006 C 196.595 37.243,193.376 37.900,191.667 38.537 C 191.529 38.588,191.042 38.762,190.583 38.924 C 183.239 41.521,176.417 47.784,172.892 55.167 C 171.677 57.713,170.667 60.511,170.667 61.332 C 170.667 61.505,170.592 61.693,170.500 61.750 C 170.408 61.807,170.333 62.130,170.332 62.468 C 170.332 62.807,170.260 63.346,170.172 63.667 C 169.657 65.548,169.661 72.205,170.179 74.833 C 170.523 76.577,171.436 79.840,171.836 80.750 C 171.916 80.933,172.145 81.458,172.344 81.917 C 174.303 86.425,177.314 90.537,180.769 93.423 C 181.204 93.786,181.640 94.158,181.738 94.250 C 183.298 95.705,187.034 97.858,190.250 99.157 C 190.433 99.231,190.808 99.384,191.083 99.497 C 194.305 100.817,200.100 101.590,204.417 101.274 C 206.500 101.121,207.281 100.969,211.750 99.845 C 212.698 99.606,215.420 98.460,216.833 97.705 C 218.537 96.794,218.846 96.622,219.075 96.458 C 219.171 96.388,219.984 95.808,220.880 95.168 C 230.545 88.267,235.660 76.023,233.829 64.167 C 233.626 62.850,233.521 62.373,233.074 60.750 C 232.480 58.594,232.302 58.070,231.656 56.583 C 229.532 51.696,225.699 46.596,222.194 43.996 C 221.888 43.769,221.543 43.496,221.428 43.389 C 216.978 39.264,206.684 36.313,199.167 37.006 M2.688 50.320 C 2.578 50.388,3.081 50.728,3.874 51.123 C 5.703 52.034,9.542 53.871,10.583 54.334 C 11.042 54.537,11.950 54.958,12.601 55.269 C 13.252 55.579,13.828 55.833,13.880 55.833 C 13.933 55.833,14.535 56.092,15.219 56.408 C 16.617 57.053,20.447 58.667,20.582 58.667 C 20.631 58.667,20.988 58.814,21.377 58.994 C 21.765 59.175,22.946 59.650,24.000 60.051 C 25.054 60.452,26.067 60.841,26.250 60.914 C 27.823 61.544,33.495 63.558,35.167 64.080 C 35.854 64.295,36.867 64.626,37.417 64.817 C 37.967 65.007,39.204 65.395,40.167 65.678 C 41.129 65.961,42.067 66.257,42.250 66.334 C 42.433 66.411,42.771 66.514,43.000 66.561 C 43.553 66.676,45.032 67.079,46.167 67.425 C 46.671 67.579,47.383 67.742,47.750 67.788 C 48.117 67.834,48.499 67.937,48.600 68.019 C 48.701 68.100,49.151 68.210,49.600 68.264 C 50.203 68.335,50.351 68.314,50.167 68.183 C 50.029 68.085,49.673 68.004,49.375 68.003 C 49.077 68.001,48.833 67.935,48.833 67.855 C 48.833 67.775,48.470 67.661,48.025 67.602 C 47.581 67.543,47.170 67.448,47.112 67.390 C 46.953 67.231,45.293 66.678,44.956 66.672 C 44.794 66.669,44.532 66.596,44.373 66.510 C 44.214 66.423,43.596 66.204,43.000 66.022 C 42.404 65.839,41.692 65.610,41.417 65.511 C 41.142 65.413,40.242 65.110,39.417 64.837 C 36.773 63.964,35.467 63.505,33.167 62.641 C 30.365 61.590,25.579 59.704,24.933 59.397 C 24.667 59.270,24.391 59.167,24.319 59.167 C 24.248 59.167,23.678 58.936,23.053 58.653 C 21.173 57.803,20.446 57.480,19.833 57.221 C 19.004 56.872,18.425 56.611,16.980 55.935 C 16.281 55.608,15.531 55.265,15.313 55.171 C 15.095 55.077,14.804 54.931,14.667 54.846 C 14.529 54.760,14.285 54.650,14.125 54.601 C 13.965 54.551,13.833 54.426,13.833 54.322 C 13.833 54.071,15.123 54.198,16.417 54.577 C 17.498 54.893,17.631 54.930,20.000 55.581 C 22.020 56.135,23.093 56.433,24.292 56.770 C 24.819 56.918,25.512 57.096,25.833 57.167 C 26.154 57.237,26.867 57.420,27.417 57.574 C 28.473 57.869,30.364 58.342,32.167 58.761 C 32.762 58.899,33.475 59.077,33.750 59.156 C 34.256 59.302,35.786 59.649,37.917 60.102 C 38.558 60.238,39.346 60.417,39.667 60.498 C 40.512 60.714,42.370 61.110,44.000 61.421 C 44.779 61.570,45.679 61.760,46.000 61.844 C 46.742 62.038,48.156 62.314,49.333 62.495 C 49.837 62.572,50.925 62.763,51.750 62.918 C 55.154 63.560,55.799 63.675,56.833 63.821 C 57.429 63.905,58.704 64.096,59.667 64.245 C 64.346 64.968,64.756 65.024,68.250 65.416 C 69.533 65.560,71.146 65.752,71.833 65.843 C 73.818 66.103,76.413 66.354,78.667 66.502 C 87.518 67.084,94.000 67.302,94.000 67.019 C 94.000 66.917,93.981 66.831,93.958 66.829 C 93.935 66.827,92.792 66.751,91.417 66.660 C 90.042 66.569,87.717 66.386,86.250 66.253 C 84.783 66.120,82.683 65.932,81.583 65.836 C 80.483 65.740,79.471 65.619,79.333 65.567 C 79.196 65.516,78.296 65.406,77.333 65.322 C 74.934 65.114,72.686 64.880,71.000 64.665 C 68.418 64.335,65.929 63.988,64.990 63.826 C 64.480 63.738,63.837 63.667,63.561 63.667 C 63.285 63.667,62.352 63.554,61.488 63.417 C 60.624 63.279,59.167 63.051,58.250 62.910 C 57.333 62.769,56.264 62.581,55.873 62.493 C 55.482 62.405,54.939 62.333,54.668 62.333 C 54.396 62.333,53.553 62.218,52.795 62.078 C 52.037 61.938,50.779 61.710,50.000 61.571 C 49.221 61.433,48.208 61.251,47.750 61.166 C 47.292 61.082,46.654 60.970,46.333 60.918 C 44.903 60.685,42.990 60.324,41.917 60.084 C 41.275 59.941,40.112 59.708,39.333 59.565 C 37.479 59.226,36.822 59.090,35.417 58.754 C 34.775 58.600,33.904 58.411,33.482 58.334 C 33.060 58.257,32.422 58.118,32.065 58.025 C 31.709 57.932,30.892 57.735,30.250 57.588 C 29.608 57.441,28.858 57.256,28.583 57.176 C 28.308 57.097,27.783 56.982,27.417 56.922 C 27.050 56.862,26.525 56.748,26.250 56.667 C 25.975 56.587,25.262 56.398,24.667 56.248 C 23.448 55.939,23.101 55.849,20.750 55.232 C 18.305 54.591,18.168 54.553,17.167 54.259 C 16.662 54.110,15.835 53.884,15.328 53.755 C 14.822 53.626,14.034 53.404,13.578 53.260 C 13.123 53.117,12.375 52.890,11.917 52.757 C 9.650 52.097,9.225 51.965,8.917 51.821 C 8.733 51.735,8.133 51.599,7.583 51.518 C 7.033 51.437,5.946 51.169,5.167 50.922 C 4.387 50.675,3.554 50.412,3.314 50.338 C 3.074 50.263,2.792 50.256,2.688 50.320 M201.337 51.007 C 201.538 51.382,201.504 57.886,201.300 58.089 C 201.236 58.153,200.823 58.242,200.383 58.285 C 195.813 58.740,190.833 63.654,190.833 67.709 C 190.833 68.793,190.698 68.833,187.092 68.833 C 183.392 68.833,183.393 68.834,183.559 67.541 C 183.847 65.292,183.963 64.797,184.692 62.705 C 185.684 59.858,188.373 56.174,190.537 54.695 C 190.746 54.553,190.954 54.390,191.000 54.334 C 191.466 53.766,194.878 51.990,196.250 51.601 C 199.599 50.652,201.056 50.482,201.337 51.007 M204.667 50.914 C 206.558 51.227,207.716 51.503,207.908 51.684 C 207.995 51.766,208.159 51.833,208.271 51.833 C 208.384 51.833,209.028 52.089,209.704 52.401 C 215.450 55.055,219.712 61.023,220.235 67.146 C 220.385 68.910,220.549 68.833,216.651 68.833 L 213.342 68.833 213.088 68.342 C 212.948 68.071,212.833 67.623,212.833 67.345 C 212.833 63.654,208.114 59.046,203.621 58.349 C 202.394 58.158,202.417 58.234,202.417 54.402 C 202.417 50.230,202.236 50.510,204.667 50.914 M201.327 59.489 C 201.889 60.538,201.410 62.333,200.569 62.333 C 200.345 62.333,200.032 62.399,199.873 62.480 C 199.714 62.561,199.208 62.800,198.750 63.011 C 197.174 63.737,195.469 65.970,195.214 67.641 C 195.058 68.667,194.793 68.833,193.313 68.833 C 191.737 68.833,191.556 68.655,191.841 67.384 C 192.778 63.201,196.241 59.798,200.083 59.284 C 201.056 59.153,201.157 59.170,201.327 59.489 M205.296 59.763 C 208.949 61.081,212.502 65.689,211.975 68.425 C 211.864 68.998,208.936 68.911,208.867 68.333 C 208.537 65.576,205.947 62.768,203.337 62.341 C 202.615 62.222,202.339 61.730,202.336 60.554 C 202.332 59.088,202.961 58.920,205.296 59.763 M50.792 68.618 C 50.998 68.657,51.335 68.657,51.542 68.618 C 51.748 68.578,51.579 68.545,51.167 68.545 C 50.754 68.545,50.585 68.578,50.792 68.618 M52.167 68.990 C 52.167 69.087,52.467 69.167,52.833 69.167 C 53.200 69.167,53.500 69.233,53.500 69.314 C 53.500 69.396,53.856 69.512,54.292 69.572 C 54.727 69.632,55.271 69.747,55.500 69.827 C 56.255 70.092,57.730 70.484,59.000 70.757 C 59.688 70.905,61.000 71.201,61.917 71.414 C 62.833 71.627,64.146 71.920,64.833 72.066 C 68.546 72.853,69.491 73.045,70.250 73.167 C 70.708 73.241,71.758 73.425,72.583 73.576 C 74.769 73.976,76.952 74.348,78.000 74.499 C 78.504 74.572,80.229 74.825,81.833 75.062 C 83.438 75.299,85.350 75.573,86.083 75.672 C 86.817 75.770,87.904 75.921,88.500 76.006 C 89.096 76.091,91.046 76.311,92.833 76.494 C 94.621 76.677,96.683 76.901,97.417 76.993 C 98.150 77.084,99.275 77.202,99.917 77.256 C 100.558 77.309,102.283 77.460,103.750 77.592 C 105.217 77.723,107.579 77.904,109.000 77.994 C 110.421 78.084,111.996 78.204,112.500 78.261 C 113.004 78.318,114.429 78.425,115.667 78.499 C 119.854 78.747,123.739 79.003,126.333 79.201 C 127.966 79.326,133.451 79.404,141.235 79.414 L 153.554 79.430 153.964 80.423 C 154.684 82.168,154.857 82.551,155.654 84.167 C 157.010 86.915,159.021 90.216,160.364 91.900 C 161.900 93.825,162.683 94.737,163.809 95.909 C 165.402 97.569,167.014 99.079,168.000 99.837 C 168.412 100.154,168.890 100.541,169.062 100.697 C 170.862 102.328,176.991 105.753,180.167 106.902 C 180.854 107.151,181.663 107.462,181.964 107.594 C 182.265 107.726,182.644 107.833,182.806 107.833 C 182.968 107.833,183.171 107.894,183.258 107.969 C 183.345 108.043,184.017 108.239,184.750 108.404 C 185.483 108.569,186.415 108.808,186.821 108.936 C 187.227 109.063,187.719 109.167,187.913 109.167 C 188.108 109.167,188.338 109.232,188.425 109.313 C 188.825 109.682,192.594 110.493,196.250 110.996 C 200.365 111.562,209.045 111.296,210.988 110.544 L 211.393 110.387 210.837 110.110 C 210.532 109.958,210.169 109.833,210.031 109.833 C 209.892 109.833,209.379 109.721,208.890 109.583 C 208.400 109.446,207.598 109.220,207.107 109.082 C 206.323 108.862,206.062 108.860,204.982 109.068 C 201.547 109.728,195.888 109.933,192.250 109.527 C 189.767 109.251,187.167 108.793,187.167 108.632 C 187.167 108.559,187.047 108.500,186.900 108.500 C 186.754 108.500,186.397 108.395,186.109 108.266 C 185.820 108.137,185.208 107.896,184.750 107.731 C 182.326 106.857,178.552 104.749,175.583 102.611 C 169.310 98.093,164.952 92.910,161.261 85.580 C 159.753 82.587,159.718 82.506,158.937 80.322 L 158.374 78.750 156.113 78.750 C 153.709 78.750,153.354 78.628,153.339 77.798 C 153.329 77.260,152.818 77.208,149.917 77.449 C 142.256 78.087,120.243 77.868,113.750 77.090 C 112.987 76.998,111.736 76.910,105.417 76.504 C 104.225 76.427,102.313 76.283,101.167 76.184 C 100.021 76.084,98.596 75.965,98.000 75.918 C 96.509 75.802,93.374 75.505,92.667 75.414 C 92.346 75.372,91.333 75.268,90.417 75.181 C 88.635 75.012,83.726 74.433,81.667 74.148 C 80.979 74.052,79.929 73.911,79.333 73.833 C 77.300 73.569,72.897 72.895,70.583 72.496 C 68.439 72.125,65.671 71.629,64.917 71.481 C 64.458 71.390,63.746 71.254,63.333 71.177 C 62.101 70.949,57.836 70.040,56.583 69.739 C 55.942 69.584,55.117 69.422,54.750 69.377 C 54.383 69.332,54.008 69.239,53.917 69.169 C 53.623 68.945,52.167 68.796,52.167 68.990 M190.415 69.895 C 190.618 70.043,190.770 70.440,190.849 71.020 C 191.204 73.651,192.799 76.489,194.740 77.946 C 195.204 78.294,195.621 78.624,195.667 78.679 C 195.993 79.071,199.179 80.333,199.842 80.333 C 200.118 80.333,200.604 80.442,200.922 80.575 L 201.500 80.816 201.500 83.876 C 201.500 87.929,201.724 87.682,198.500 87.186 C 192.007 86.187,185.977 80.619,184.202 73.984 C 183.037 69.631,183.013 69.667,187.153 69.667 C 189.388 69.667,190.179 69.722,190.415 69.895 M194.777 69.913 C 194.970 70.048,195.177 70.421,195.237 70.742 C 195.649 72.936,198.603 75.833,200.428 75.833 C 201.294 75.833,201.519 76.285,201.466 77.917 L 201.417 79.417 200.583 79.398 C 199.670 79.378,198.341 79.072,198.092 78.824 C 198.005 78.737,197.827 78.667,197.697 78.667 C 195.391 78.667,190.530 71.327,191.918 69.939 C 192.280 69.577,194.272 69.559,194.777 69.913 M211.678 69.839 C 212.643 70.356,211.161 74.394,209.282 76.368 C 207.349 78.398,203.226 80.158,202.555 79.240 C 201.832 78.250,202.445 75.833,203.420 75.833 C 205.261 75.833,207.783 73.443,208.563 70.958 C 208.729 70.430,208.989 69.927,209.141 69.838 C 209.510 69.622,211.274 69.623,211.678 69.839 M220.054 69.967 C 220.289 70.227,220.304 70.459,220.166 71.671 C 219.669 76.031,217.144 80.416,213.283 83.624 C 212.585 84.204,209.893 85.833,209.633 85.833 C 209.505 85.833,209.329 85.898,209.242 85.977 C 208.712 86.458,205.951 87.177,203.630 87.438 C 202.375 87.579,202.333 87.463,202.333 83.834 C 202.333 80.691,202.368 80.585,203.464 80.419 C 208.214 79.701,212.292 75.728,212.846 71.282 C 213.047 69.665,213.042 69.667,216.667 69.667 C 219.458 69.667,219.810 69.698,220.054 69.967 " stroke="none" fill="#080808" fill-rule="evenodd"></path></g></svg>